<?xml version="1.0" encoding="UTF-8"?>
<svg version="1.1" xmlns="http://www.w3.org/2000/svg" width="1024" height="1024">
<path d="M0 0 C337.92 0 675.84 0 1024 0 C1024 337.92 1024 675.84 1024 1024 C686.08 1024 348.16 1024 0 1024 C0 686.08 0 348.16 0 0 Z " fill="#000000" transform="translate(0,0)"/>
<path d="M0 0 C9.52834367 5.28488882 18.75854042 10.94875722 27.94921875 16.796875 C33.06628588 20.05092742 38.21607018 23.2503404 43.375 26.4375 C44.2505957 26.97866455 45.12619141 27.5198291 46.02832031 28.07739258 C48.68520093 29.71882258 51.34259166 31.35942454 54 33 C68.01062524 41.65510012 81.99136849 50.35672125 95.95166016 59.09277344 C100.96658596 62.23041563 105.98337765 65.36507133 111 68.5 C113.00000915 69.74998537 115.00000914 70.99998537 117 72.25 C118.485 73.178125 118.485 73.178125 120 74.125 C123 76 126 77.875 129 79.75 C130.48560425 80.67848755 130.48560425 80.67848755 132.0012207 81.62573242 C133.99718828 82.87323247 135.99311939 84.12079088 137.98901367 85.3684082 C143.05040916 88.53214182 148.11247394 91.69479561 153.17578125 94.85546875 C155.2214073 96.13272741 157.26698054 97.41007065 159.3125 98.6875 C160.31684082 99.31470947 161.32118164 99.94191895 162.35595703 100.58813477 C168.37560291 104.35053657 174.38009672 108.13583826 180.375 111.9375 C188.97748172 117.39003858 197.6526535 122.72184921 206.33569336 128.04492188 C214.04008466 132.7741353 221.69976272 137.56822061 229.30273438 142.45898438 C230.01623047 142.91466797 230.72972656 143.37035156 231.46484375 143.83984375 C232.38704712 144.43333618 232.38704712 144.43333618 233.32788086 145.03881836 C235.15198064 146.16100745 235.15198064 146.16100745 238 147 C240.2814112 145.97506923 240.2814112 145.97506923 242.69921875 144.34375 C243.64901611 143.74087158 244.59881348 143.13799316 245.57739258 142.5168457 C246.60372803 141.85128662 247.63006348 141.18572754 248.6875 140.5 C250.87220852 139.10777893 253.05710978 137.71586028 255.2421875 136.32421875 C256.37478239 135.59831288 257.5072691 134.87223818 258.63964844 134.14599609 C263.83788099 130.82628786 269.07618883 127.57166766 274.3125 124.3125 C282.14992095 119.41844781 289.97100801 114.49938451 297.77856445 109.55786133 C305.19991801 104.86463584 312.64891626 100.21599805 320.09765625 95.56640625 C326.24300017 91.72850947 332.37786211 87.87479572 338.5 84 C348.61415344 77.60001664 358.76629948 71.26124041 368.91943359 64.92333984 C373.94746489 61.78410775 378.97363037 58.64189167 384 55.5 C384.98742187 54.88294189 385.97484375 54.26588379 386.9921875 53.63012695 C392.03082899 50.4813866 397.06877508 47.33154276 402.10546875 44.1796875 C412.40159993 37.73800543 422.70683392 31.31203855 433.04077148 24.93115234 C437.81391281 21.98134102 442.57623517 19.01519534 447.328125 16.03125 C448.39740234 15.36029297 449.46667969 14.68933594 450.56835938 13.99804688 C452.62821119 12.70447511 454.68688416 11.40902349 456.74414062 10.11132812 C462.40502039 6.55736067 468.12406016 3.18521972 474 0 C471.24500409 11.32275686 468.21600402 22.54567731 465.015625 33.75 C464.55029553 35.38616757 464.08519171 37.02239932 463.62030029 38.65869141 C462.41261368 42.90717317 461.20192233 47.15479258 459.99053955 51.40222168 C458.74833863 55.75980475 457.50906918 60.11822133 456.26953125 64.4765625 C453.84917503 72.98517988 451.42563455 81.49288586 449 90 C452.74442692 93.04450804 456.59388259 95.70483298 460.6875 98.25 C490.62822576 117.24498977 512.94322287 145.14058828 523.375 179.125 C523.60171387 179.86282715 523.82842773 180.6006543 524.06201172 181.36083984 C527.83602388 194.57414202 529.49258827 207.65565304 529.33618164 221.35717773 C529.31246281 223.56596338 529.31567486 225.77353943 529.32226562 227.98242188 C529.25642116 262.68581693 519.63204571 301.96450434 501.82421875 331.98193359 C500.84060118 333.95745101 500.84060118 333.95745101 501.16455078 336.06494141 C502.19415907 338.44970917 503.30244651 339.39423514 505.3671875 340.9609375 C506.07786377 341.50733887 506.78854004 342.05374023 507.52075195 342.61669922 C508.29765381 343.19693848 509.07455566 343.77717773 509.875 344.375 C510.68219482 344.99004395 511.48938965 345.60508789 512.32104492 346.23876953 C518.72231557 351.09678284 525.19430424 355.86133374 531.67919922 360.60693359 C538.57524752 365.65880397 545.36953398 370.83743403 552.15673828 376.03417969 C557.95338634 380.46382506 563.79935798 384.81790507 569.6875 389.125 C576.68994419 394.25058279 583.57484385 399.50676195 590.40258789 404.86254883 C596.27165819 409.46001986 602.22033662 413.94215751 608.22729492 418.35791016 C609.8353296 419.54915378 611.42045723 420.77122763 613 422 C613 422.33 613 422.66 613 423 C612.13492702 422.99040504 611.26985405 422.98081009 610.37856674 422.97092438 C589.29444352 422.74260642 568.2113537 422.60331487 547.12600327 422.56215668 C536.92888292 422.54012257 526.73355703 422.48836216 516.53710938 422.36572266 C507.64592689 422.25885885 498.75650416 422.20868461 489.86466432 422.22555113 C485.15891009 422.23252436 480.45707171 422.21181943 475.75206757 422.12312317 C455.82036348 420.65002081 455.82036348 420.65002081 438.13952637 427.44018555 C435.36285977 430.66710522 433.51303063 434.05017516 431.90479279 437.97483826 C430.41901447 441.30039683 428.26008952 443.9786981 426.0625 446.875 C425.24335519 448.02055893 424.42780177 449.16870146 423.6171875 450.3203125 C419.01205265 456.80856168 414.33141244 463.24285613 409.66894531 469.68994141 C408.03481701 471.95180829 406.4036287 474.21576308 404.7734375 476.48046875 C399.22449791 484.18531197 393.64152169 491.86263122 388 499.5 C377.06291286 514.31419172 366.34623699 529.26997656 355.82568359 544.3828125 C354.00059565 546.99914611 352.16717301 549.60946089 350.33203125 552.21875 C340.00754485 566.93244151 330.02795697 581.8648804 320.09031677 596.84114075 C317.06174547 601.40470522 314.024817 605.96257151 310.98046875 610.515625 C303.36596725 621.90542843 295.76430738 633.30077623 288.38232422 644.84326172 C286.85645019 647.22397016 285.32064883 649.5981412 283.78515625 651.97265625 C267.60478138 677.08808355 252.80344819 703.05732347 238 729 C237.34 729 236.68 729 236 729 C235.72027344 728.47494873 235.44054687 727.94989746 235.15234375 727.40893555 C223.13687727 704.93547362 210.10379174 683.06522385 196.55810547 661.48339844 C195.54658406 659.87117722 194.53764077 658.25733452 193.53173828 656.64160156 C182.1974981 638.44487741 170.18803216 620.6853931 158.2646637 602.87231445 C155.26672178 598.39309556 152.27354307 593.9108093 149.2890625 589.42260742 C143.27006987 580.37182002 137.24156605 571.33689679 131 562.4375 C130.33830811 561.49044189 129.67661621 560.54338379 128.99487305 559.56762695 C127.64775922 557.64012394 126.29971949 555.71326764 124.95068359 553.78710938 C123.07388704 551.10556877 121.20215978 548.42056881 119.33203125 545.734375 C113.21534403 536.95752653 107.03448837 528.23295557 100.75097656 519.57470703 C97.14413982 514.6007805 93.59062231 509.59248582 90.0625 504.5625 C85.23393998 497.68761494 80.28089816 490.91171059 75.28369141 484.15869141 C71.30167909 478.775256 67.35374341 473.36896368 63.4375 467.9375 C62.90592285 467.20039795 62.3743457 466.4632959 61.82666016 465.70385742 C59.67016707 462.71142039 57.51562133 459.71759353 55.36328125 456.72216797 C53.72256584 454.43890398 52.080411 452.1566846 50.4375 449.875 C49.90801758 449.13886475 49.37853516 448.40272949 48.83300781 447.64428711 C46.10059935 443.85905847 43.33609039 440.10299059 40.515625 436.3828125 C39.95689697 435.64562988 39.39816895 434.90844727 38.82250977 434.14892578 C37.75462903 432.74538894 36.68238101 431.34516128 35.60522461 429.94873047 C32 425.2172942 32 425.2172942 32 423 C-24.43 423 -80.86 423 -139 423 C-133.38095238 417.38095238 -133.38095238 417.38095238 -130.09375 415.01171875 C-129.36091797 414.47869141 -128.62808594 413.94566406 -127.87304688 413.39648438 C-127.08994141 412.83251953 -126.30683594 412.26855469 -125.5 411.6875 C-118.43319536 406.54251481 -111.4379242 401.31748592 -104.5 396 C-97.11399415 390.3459366 -89.66804414 384.78528985 -82.1640625 379.2890625 C-75.33066631 374.27185134 -68.59353084 369.1338017 -61.86230469 363.98071289 C-55.12581183 358.83321626 -48.32603954 353.77804821 -41.47851562 348.77929688 C-36.24185578 344.94908103 -31.1018988 341.00788493 -26 337 C-26.24121582 336.47269287 -26.48243164 335.94538574 -26.73095703 335.40209961 C-50.21401618 283.95264882 -66.17694988 227.69188897 -46.65625 172.06640625 C-33.68579536 138.01896282 -8.89004945 108.41700935 24 92 C24.66 92 25.32 92 26 92 C25.5978125 90.86957275 25.5978125 90.86957275 25.1875 89.71630859 C20.52427658 76.19641206 16.82375556 62.4003696 13 48.625 C11.60588624 43.61670722 10.20940519 38.60907728 8.8125 33.6015625 C8.31496216 31.81350189 8.31496216 31.81350189 7.80737305 29.98931885 C5.74182267 22.58526433 3.62913691 15.19794912 1.37036133 7.85025024 C0.53951412 5.10259126 0 2.89341334 0 0 Z " fill="#FDFDFD" transform="translate(275,144)"/>
<path d="M0 0 C2.03786428 0.85375193 3.6590788 1.81931641 5.44995117 3.11279297 C6.11639648 3.58910156 6.7828418 4.06541016 7.46948242 4.55615234 C8.53682617 5.33249023 8.53682617 5.33249023 9.62573242 6.12451172 C11.16077354 7.22493276 12.69593306 8.32518864 14.23120117 9.42529297 C15.01414551 9.98941895 15.79708984 10.55354492 16.60375977 11.13476562 C20.1985861 13.71753669 23.8187368 16.26399134 27.43823242 18.81201172 C28.85503913 19.8118133 30.27170538 20.81181395 31.68823242 21.81201172 C32.38948242 22.30701172 33.09073242 22.80201172 33.81323242 23.31201172 C74.18823243 51.81201172 74.18823243 51.81201172 76.31494141 53.31323242 C77.7258934 54.30918899 79.13686334 55.30512015 80.54785156 56.30102539 C84.17710326 58.86267746 87.80600392 61.42482458 91.43432617 63.98779297 C98.92473416 69.27821528 106.41778455 74.56432819 113.93823242 79.81201172 C113.33593479 84.79938852 112.30203855 89.34528981 110.81323242 94.16357422 C110.48500488 95.2317186 110.48500488 95.2317186 110.15014648 96.32144165 C109.41856695 98.69511157 108.67873354 101.06611107 107.93823242 103.43701172 C107.41467508 105.12545113 106.89124087 106.81392872 106.36791992 108.50244141 C101.6397775 123.71472571 96.79461211 138.89027722 91.93823242 154.06201172 C91.38570801 155.79031219 91.38570801 155.79031219 90.82202148 157.55352783 C89.759199 160.87490736 88.69307321 164.19520674 87.62573242 167.51513672 C87.3125708 168.49398834 86.99940918 169.47283997 86.67675781 170.48135376 C84.57690468 176.99363192 82.28019304 183.37162002 79.93823242 189.81201172 C26.47823242 189.81201172 -26.98176758 189.81201172 -82.06176758 189.81201172 C-95.9214528 148.23295606 -95.9214528 148.23295606 -99.79223633 135.63232422 C-100.24328022 134.1735012 -100.69456685 132.71475321 -101.14607239 131.256073 C-102.06138915 128.29585319 -102.97399049 125.33481712 -103.88427734 122.37304688 C-105.04633406 118.59291026 -106.21584505 114.8151225 -107.38720226 111.03785896 C-108.30709895 108.06873859 -109.22328563 105.0984837 -110.13833046 102.12786484 C-110.56897238 100.73134321 -111.00073599 99.3351669 -111.43370628 97.93936539 C-112.02989531 96.01543128 -112.6205367 94.08978073 -113.2109375 92.1640625 C-113.54558517 91.07795685 -113.88023285 89.9918512 -114.22502136 88.87283325 C-115.04798228 85.86243839 -115.60621057 82.8974713 -116.06176758 79.81201172 C-106.48177798 72.45177581 -96.60613506 65.54068711 -86.69067383 58.64257812 C-82.47526763 55.70729621 -78.26885068 52.75920418 -74.06176758 49.81201172 C-72.39514683 48.64527946 -70.72848009 47.47861289 -69.06176758 46.31201172 C-68.23676758 45.73451172 -67.41176758 45.15701172 -66.56176758 44.56201172 C-64.06176758 42.81201172 -61.56176758 41.06201172 -59.06176758 39.31201172 C-58.23692871 38.73459229 -57.41208984 38.15717285 -56.56225586 37.56225586 C-54.8940839 36.39460064 -53.22578943 35.2271204 -51.55737305 34.05981445 C-47.4127196 31.15968879 -43.2701787 28.25664032 -39.13208008 25.34716797 C-35.0044145 22.4458201 -30.86737479 19.55818951 -26.72680664 16.67529297 C-24.84992256 15.36305595 -22.97725102 14.04478347 -21.10766602 12.72216797 C-18.10027193 10.59477567 -15.0820111 8.48360782 -12.06176758 6.37451172 C-11.12349121 5.70492432 -10.18521484 5.03533691 -9.21850586 4.34545898 C-8.34178223 3.73758545 -7.46505859 3.12971191 -6.56176758 2.50341797 C-5.78833008 1.95886963 -5.01489258 1.41432129 -4.21801758 0.85327148 C-2.06176758 -0.18798828 -2.06176758 -0.18798828 0 0 Z " fill="#000000" transform="translate(513.061767578125,340.18798828125)"/>
<path d="M0 0 C45.54 0 91.08 0 138 0 C128.25718371 30.04035022 118.5031234 60.07556708 108.63347626 90.07427216 C107.99160114 92.025532 107.35005817 93.97690083 106.70855713 95.92828369 C103.60986105 105.35216524 100.50024222 114.7723868 97.375 124.1875 C97.15513554 124.84987545 96.93527107 125.5122509 96.70874405 126.19469833 C90.02515254 146.31603051 83.07032779 166.3248837 75.70849609 186.2097168 C75.3944986 187.05804077 75.0805011 187.90636475 74.75698853 188.78039551 C74.17945575 190.33668857 73.59954795 191.89210342 73.01669312 193.44641113 C71.83851205 196.60827347 70.77732412 199.71768059 70 203 C69.34 203 68.68 203 68 203 C67.71503662 202.13463623 67.43007324 201.26927246 67.13647461 200.37768555 C61.6099382 183.62533789 56.00059872 166.90862875 50.13787842 150.27069092 C40.21209644 122.09135017 30.84500102 93.72432529 21.43966675 65.36813354 C18.89094498 57.6850056 16.33501918 50.00436834 13.76708984 42.32763672 C13.22749692 40.71337941 12.68792056 39.09911656 12.14836121 37.48484802 C11.37625948 35.17495921 10.60369501 32.86523261 9.82926369 30.55612373 C9.11742942 28.43363773 8.40757049 26.31049892 7.69799805 24.18725586 C7.29663132 22.98918808 6.89526459 21.7911203 6.48173523 20.55674744 C4.25993768 13.72410278 2.14304755 6.85775216 0 0 Z " fill="#000000" transform="translate(443,567)"/>
<path d="M0 0 C2.14549795 3.21824692 2.98749852 5.86484227 4.08447266 9.56787109 C4.28369072 10.23519194 4.48290878 10.90251278 4.68816376 11.59005547 C5.35155407 13.81646551 6.0077421 16.04493405 6.6640625 18.2734375 C7.13330379 19.85265996 7.6030303 21.43173832 8.07321167 23.01068115 C9.33509344 27.25255737 10.59099389 31.49618194 11.84561157 35.74021149 C13.92356439 42.76490678 16.01125184 49.78672143 18.09745026 56.80897141 C18.62216826 58.57558929 19.14665763 60.3422751 19.67092133 62.10902786 C22.91398545 73.03758536 26.18549166 83.9565233 29.52311325 94.85659409 C30.10675557 96.76280372 30.68920714 98.6693778 31.27163696 100.57595825 C33.40197272 107.54805521 33.40197272 107.54805521 35.54962158 114.51483154 C36.5092202 117.61444756 37.45871725 120.71699115 38.40625 123.8203125 C38.68838348 124.71973572 38.97051697 125.61915894 39.26119995 126.5458374 C39.50822662 127.36102844 39.7552533 128.17621948 40.00976562 129.01611328 C40.22685181 129.71874298 40.44393799 130.42137268 40.66760254 131.14529419 C41 133 41 133 40 136 C38.51977539 137.32763672 38.51977539 137.32763672 36.59765625 138.6796875 C35.88158203 139.18951172 35.16550781 139.69933594 34.42773438 140.22460938 C33.64720703 140.76923828 32.86667969 141.31386719 32.0625 141.875 C30.40741132 143.04928079 28.75246734 144.22376555 27.09765625 145.3984375 C26.2483252 145.9975293 25.39899414 146.59662109 24.52392578 147.21386719 C20.6617086 149.9470826 16.8315419 152.7240352 13 155.5 C11.50409574 156.58099143 10.00800117 157.66171956 8.51171875 158.7421875 C7.76970215 159.27811523 7.02768555 159.81404297 6.26318359 160.36621094 C3.97432252 162.01853654 1.68453508 163.66957112 -0.60546875 165.3203125 C-1.74435547 166.14172729 -1.74435547 166.14172729 -2.90625 166.97973633 C-4.41241043 168.06599651 -5.91891412 169.15178092 -7.42578125 170.23706055 C-11.10037154 172.88791063 -14.75989561 175.55628703 -18.39453125 178.26171875 C-19.08716064 178.77589355 -19.77979004 179.29006836 -20.4934082 179.81982422 C-21.80103806 180.79255191 -23.10572326 181.76925457 -24.40698242 182.75048828 C-28.77850917 186 -28.77850917 186 -31 186 C-37.67391917 170.89905529 -43.76555015 155.97025037 -48 140 C-48.31453125 138.86433594 -48.6290625 137.72867188 -48.953125 136.55859375 C-52.20062986 124.34861224 -53.36711988 112.36719245 -53.3125 99.75 C-53.31034485 99.07024109 -53.3081897 98.39048218 -53.30596924 97.69012451 C-53.15408671 67.78155807 -43.57066128 41.67185837 -24 19 C-23.43023437 18.32839844 -22.86046875 17.65679687 -22.2734375 16.96484375 C-16.33471467 10.5236136 -7.82463797 3.91231899 0 0 Z " fill="#000000" transform="translate(311,272)"/>
<path d="M0 0 C4.26568987 1.45600115 7.60419963 3.68879568 11.125 6.4375 C11.6912207 6.87924561 12.25744141 7.32099121 12.84082031 7.77612305 C32.14390069 23.12839109 44.45603319 43.40205909 51 67 C51.3196875 68.1240625 51.639375 69.248125 51.96875 70.40625 C61.02852992 108.99420153 48.76905857 151.24029581 32 186 C27.74077176 184.55434954 24.75025897 182.42702078 21.25 179.625 C16.20933414 175.65266089 11.07086284 171.86659656 5.8125 168.1875 C-0.13533003 164.02113266 -6.05474965 159.82036874 -11.9375 155.5625 C-13.0368689 154.76682617 -13.0368689 154.76682617 -14.15844727 153.95507812 C-15.65739337 152.86969647 -17.15617088 151.78408195 -18.65478516 150.69824219 C-22.80846803 147.69043268 -26.96706204 144.68942303 -31.125 141.6875 C-32.64845801 140.58726799 -34.1718975 139.48701031 -35.6953125 138.38671875 C-36.6546167 137.69388794 -36.6546167 137.69388794 -37.63330078 136.98706055 C-38.08431152 136.66133057 -38.53532227 136.33560059 -39 136 C-38.31882685 129.2393109 -36.33783715 122.94901847 -34.37890625 116.4609375 C-33.80818803 114.54799331 -33.23747106 112.63504875 -32.66680241 110.72208977 C-32.05648835 108.67968123 -31.44373888 106.638018 -30.83026123 104.59655762 C-29.55189667 100.34223617 -28.2803644 96.08589349 -27.01025391 91.82910156 C-26.57587923 90.37353142 -26.14149193 88.91796504 -25.70709229 87.46240234 C-25.48999855 86.73496826 -25.27290482 86.00753418 -25.04923248 85.25805664 C-24.38210539 83.02361073 -23.71431192 80.78936499 -23.04632568 78.55517578 C-18.68821929 63.97641316 -14.37172154 49.38546783 -10.06710815 34.79083252 C-9.07913663 31.44127835 -8.08986659 28.09210936 -7.10018826 24.74305916 C-6.1884486 21.65704931 -5.2778777 18.57069468 -4.3671875 15.484375 C-3.87476311 13.81850845 -3.87476311 13.81850845 -3.37239075 12.11898804 C-3.07273911 11.10229034 -2.77308746 10.08559265 -2.46435547 9.03808594 C-2.07399612 7.7154776 -2.07399612 7.7154776 -1.67575073 6.3661499 C-1.07217367 4.25271705 -0.51774004 2.13586625 0 0 Z " fill="#000000" transform="translate(712,272)"/>
<path d="M0 0 C0.66064453 0.42047607 1.32128906 0.84095215 2.00195312 1.27416992 C2.91912109 1.85787354 3.83628906 2.44157715 4.78125 3.04296875 C6.29525391 4.00662354 6.29525391 4.00662354 7.83984375 4.98974609 C9.83142941 6.25664321 11.82354356 7.52271029 13.81640625 8.78759766 C25.99139139 16.51682961 38.08419501 24.34532345 50.0625 32.375 C57.66431339 37.47081756 65.28373137 42.51368141 73.07739258 47.31274414 C81.86757341 52.73868199 90.47284548 58.4551046 99.11474609 64.11279297 C103.59219527 67.0414342 108.07686111 69.95892407 112.5625 72.875 C113.37726807 73.40561035 114.19203613 73.9362207 115.03149414 74.48291016 C118.78148892 76.92233463 122.53857947 79.34830276 126.3203125 81.73828125 C126.97829834 82.1554541 127.63628418 82.57262695 128.31420898 83.00244141 C130.05453933 84.10338804 131.79860399 85.19842556 133.54296875 86.29296875 C136 88 136 88 137 90 C136.33133911 90.48073975 136.33133911 90.48073975 135.64916992 90.97119141 C126.89781076 97.26718132 118.17026177 103.59268015 109.5 110 C101.12226417 116.18907376 92.69192019 122.30187531 84.23828125 128.38671875 C81.97933793 130.01489256 79.72357339 131.64737625 77.46875 133.28125 C67.36661817 140.59864586 57.20682508 147.82938238 47 155 C45 154 45 154 43.76620483 150.56735229 C43.29097772 148.99898557 42.82457515 147.42793063 42.36474609 145.85498047 C42.10702077 144.99610702 41.84929544 144.13723356 41.58376026 143.25233364 C40.72281079 140.37613452 39.87312751 137.49673122 39.0234375 134.6171875 C38.41961154 132.59121414 37.81513279 130.56543523 37.21003723 128.5398407 C35.59003592 123.10919936 33.97993466 117.67566979 32.37200546 112.24144363 C31.04942641 107.77568292 29.72137949 103.31155684 28.39325237 98.84744358 C20.93281137 73.76985878 13.51127443 48.6803732 6.1875 23.5625 C5.85602966 22.42737976 5.52455933 21.29225952 5.18304443 20.1227417 C4.27880413 17.02159847 3.37861296 13.91931972 2.48046875 10.81640625 C2.22256058 9.9316008 1.9646524 9.04679535 1.69892883 8.13517761 C0 2.23257803 0 2.23257803 0 0 Z " fill="#000000" transform="translate(339,227)"/>
<path d="M0 0 C1.73323484 3.46646968 -0.33472337 7.19693917 -1.41015625 10.75 C-1.68467621 11.67792358 -1.95919617 12.60584717 -2.24203491 13.56188965 C-3.17528934 16.71002123 -4.11897403 19.85493294 -5.0625 23 C-5.72795772 25.23743319 -6.39273464 27.47506895 -7.05688477 29.71289062 C-8.53546368 34.69002704 -10.0185597 39.66579677 -11.50488281 44.640625 C-14.21897345 53.72620092 -16.91819175 62.81618076 -19.6171875 71.90625 C-23.3852531 84.59496336 -27.1574002 97.28245328 -30.93359375 109.96875 C-35.30121035 124.64224342 -39.65560569 139.31961289 -44 154 C-47.24984913 152.73765777 -49.98179807 151.48692834 -52.79296875 149.41796875 C-53.49615234 148.90492188 -54.19933594 148.391875 -54.92382812 147.86328125 C-55.67083984 147.31027344 -56.41785156 146.75726563 -57.1875 146.1875 C-58.80588677 145.00376568 -60.42437929 143.82017591 -62.04296875 142.63671875 C-62.86716309 142.03134277 -63.69135742 141.4259668 -64.54052734 140.80224609 C-68.34542219 138.01410497 -72.17308077 135.2577876 -76 132.5 C-77.50012464 131.41683927 -79.00012429 130.3335054 -80.5 129.25 C-81.2425 128.71375 -81.985 128.1775 -82.75 127.625 C-85 126 -87.25 124.375 -89.5 122.75 C-90.2427417 122.21358887 -90.9854834 121.67717773 -91.75073242 121.12451172 C-93.24834254 120.04287732 -94.74590126 118.96117177 -96.2434082 117.87939453 C-100.02955187 115.14447705 -103.81662455 112.41086281 -107.60546875 109.6796875 C-117.10329277 102.83089587 -126.5692708 95.94090542 -136 89 C-131.19410714 84.91397717 -125.9133592 81.6025035 -120.625 78.1875 C-118.54812767 76.83991991 -116.47130618 75.49226145 -114.39453125 74.14453125 C-113.33314941 73.45697754 -112.27176758 72.76942383 -111.17822266 72.06103516 C-106.21597709 68.84308485 -101.2647089 65.60836481 -96.3125 62.375 C-84.29252961 54.53412137 -72.25971687 46.71304793 -60.22265625 38.8984375 C-51.30585103 33.10792917 -42.39905581 27.30241265 -33.50250244 21.48083496 C-25.34291811 16.14169852 -17.18216182 10.80449542 -9 5.5 C-7.95936401 4.82396729 -7.95936401 4.82396729 -6.89770508 4.13427734 C-2.23849475 1.11924738 -2.23849475 1.11924738 0 0 Z " fill="#010101" transform="translate(684,228)"/>
<path d="M0 0 C3.64601924 1.61949073 6.55244488 3.85985124 9.6875 6.3125 C10.85258725 7.21910652 12.01796659 8.12533775 13.18359375 9.03125 C13.80218262 9.51335937 14.42077148 9.99546875 15.05810547 10.4921875 C18.44046344 13.11846897 21.8462381 15.71405934 25.25 18.3125 C26.6979597 19.41921453 28.14587589 20.52598599 29.59375 21.6328125 C31.06248215 22.75523169 32.53123221 23.87762745 34 25 C44.01218802 32.65090651 54.01810301 40.30959936 64 48 C63.32922924 52.00489599 61.32037983 55.2047253 59.25 58.625 C58.86457031 59.2658252 58.47914063 59.90665039 58.08203125 60.56689453 C46.39314048 79.60685952 46.39314048 79.60685952 40 86 C37.94443339 86.09413687 35.88559819 86.11742998 33.82788086 86.11352539 C32.86205833 86.11374443 32.86205833 86.11374443 31.87672424 86.1139679 C29.73939697 86.11326885 27.60215587 86.10547691 25.46484375 86.09765625 C23.98653715 86.09579204 22.50822993 86.09436815 21.02992249 86.09336853 C17.13201198 86.08954359 13.23413851 86.07971352 9.33624268 86.06866455 C5.36153667 86.05844992 1.38682471 86.0538708 -2.58789062 86.04882812 C-10.391944 86.03809122 -18.19596682 86.02101509 -26 86 C-23.81284618 76.66969269 -21.07563217 67.54822211 -18.18359375 58.41796875 C-17.72151441 56.94983727 -17.25977478 55.48159883 -16.7983551 54.01325989 C-15.59386171 50.18300981 -14.38535619 46.35403856 -13.17578125 42.52539062 C-11.23595111 36.38259517 -9.30269799 30.23772561 -7.36876106 24.09307289 C-6.69741976 21.96186023 -6.02457251 19.83112804 -5.35142517 17.70048523 C-4.93665564 16.38520947 -4.52190547 15.06992761 -4.10717773 13.75463867 C-3.74760483 12.61612961 -3.38803192 11.47762054 -3.01756287 10.30461121 C-1.96349512 6.88144768 -0.97247341 3.44708968 0 0 Z " fill="#010101" transform="translate(660,444)"/>
<path d="M0 0 C2.20593742 3.30890614 3.25698103 6.55824937 4.41430664 10.3137207 C4.64707809 11.05554596 4.87984955 11.79737122 5.11967468 12.56167603 C5.88800867 15.01489492 6.64925923 17.47024642 7.41015625 19.92578125 C7.9426784 21.63357539 8.47551467 23.34127162 9.00865173 25.0488739 C10.12549149 28.62985051 11.23890245 32.21187 12.34985352 35.79467773 C13.77180227 40.3796831 15.20157233 44.96220312 16.63385868 49.54398823 C17.73575991 53.07158078 18.83378823 56.60036946 19.93063164 60.12953758 C20.45618692 61.81912122 20.98286539 63.50835591 21.51069832 65.19722939 C22.24937883 67.56299936 22.98290078 69.93030928 23.71508789 72.2980957 C23.93276825 72.99181778 24.15044861 73.68553986 24.37472534 74.40028381 C25.55723454 78.24594168 26.43504037 82.01636974 27 86 C18.58544811 86.34929285 10.17397276 86.61488761 1.75393963 86.77718258 C-2.15730453 86.85512986 -6.06355541 86.96056408 -9.97192383 87.1315918 C-37.33451035 88.29775729 -37.33451035 88.29775729 -43.36669922 82.89746094 C-45.94243393 79.82407219 -47.69374931 76.52696569 -49.22250366 72.8331604 C-50.24799077 70.41529388 -51.65632996 68.3592592 -53.15625 66.2109375 C-53.94382451 64.93617748 -54.72550883 63.65775101 -55.5 62.375 C-55.9021875 61.72144531 -56.304375 61.06789063 -56.71875 60.39453125 C-57.48142894 59.15266916 -58.23725781 57.90655939 -58.984375 56.65527344 C-59.90022222 55.1626186 -60.89894201 53.72158657 -61.90625 52.2890625 C-63 50 -63 50 -62.31445312 48.05566406 C-60.80854341 45.70058238 -59.32050229 44.46226398 -57.0625 42.8203125 C-56.2593335 42.22855225 -55.45616699 41.63679199 -54.62866211 41.02709961 C-53.76120361 40.39940674 -52.89374512 39.77171387 -52 39.125 C-50.16689172 37.77620212 -48.33488198 36.42591013 -46.50390625 35.07421875 C-45.57852051 34.39278809 -44.65313477 33.71135742 -43.69970703 33.00927734 C-39.72618385 30.05195271 -35.83082883 26.9991553 -31.9375 23.9375 C-23.39582539 17.2433707 -14.6801295 10.79793783 -5.91259766 4.40356445 C-3.93117716 2.94949419 -1.96372947 1.47784982 0 0 Z " fill="#010101" transform="translate(363,444)"/>
<path d="M0 0 C16.17 0 32.34 0 49 0 C51.27358748 4.54717496 52.91245617 8.45502191 54.42578125 13.23828125 C54.64970047 13.93934998 54.87361969 14.6404187 55.10432434 15.36273193 C55.58942134 16.88153608 56.0725865 18.40095834 56.55401611 19.92092896 C57.87032379 24.0713709 59.20595984 28.21556281 60.54296875 32.359375 C60.82285645 33.22695938 61.10274414 34.09454376 61.39111328 34.98841858 C64.53865717 44.71279071 67.81839025 54.39124971 71.125 64.0625 C71.56413727 65.34929153 71.56413727 65.34929153 72.012146 66.66207886 C74.98639944 75.36942247 77.99722946 84.0605706 81.14453125 92.70703125 C81.50632477 93.70395744 81.50632477 93.70395744 81.87542725 94.72102356 C82.98513522 97.77501624 84.1056326 100.82422243 85.24462891 103.86743164 C85.81769775 105.42965454 85.81769775 105.42965454 86.40234375 107.0234375 C86.73741943 107.91981934 87.07249512 108.81620117 87.41772461 109.73974609 C88 112 88 112 87 115 C81.34739786 107.74539311 75.81120826 100.41797494 70.375 93 C63.89963795 84.16874072 57.28023962 75.45305591 50.62890625 66.75390625 C47.77296144 63.01808114 44.93929304 59.26728115 42.125 55.5 C35.28133044 46.34933072 28.26495284 37.33200203 21.25 28.3125 C20.66758545 27.56347412 20.0851709 26.81444824 19.48510742 26.04272461 C16.3275426 21.98410596 13.16367075 17.93056596 9.9921875 13.8828125 C9.02104004 12.64084106 9.02104004 12.64084106 8.03027344 11.3737793 C6.77770902 9.77212113 5.52320656 8.17197636 4.26660156 6.57348633 C3.70682617 5.85700928 3.14705078 5.14053223 2.5703125 4.40234375 C2.07289551 3.76804443 1.57547852 3.13374512 1.06298828 2.48022461 C0 1 0 1 0 0 Z " fill="#020202" transform="translate(353,567)"/>
<path d="M0 0 C16.5 0 33 0 50 0 C43.32307692 10.01538462 43.32307692 10.01538462 39.9375 14 C35.522576 19.30824474 31.3242112 24.75904975 27.14575195 30.25463867 C23.17684043 35.47093871 19.16215156 40.64889965 15.125 45.8125 C0.29141684 64.8260997 -13.98705435 84.27796277 -28.125 103.8125 C-28.92381592 104.91489014 -28.92381592 104.91489014 -29.73876953 106.03955078 C-32.57819801 109.9742265 -35.33788457 113.94313988 -38 118 C-39 116 -39 116 -38.4777832 114.04931641 C-38.17187256 113.24155762 -37.86596191 112.43379883 -37.55078125 111.6015625 C-37.204104 110.66812012 -36.85742676 109.73467773 -36.50024414 108.77294922 C-36.10828857 107.73412598 -35.71633301 106.69530273 -35.3125 105.625 C-31.55958906 95.42765924 -27.98500318 85.18758279 -24.5625 74.875 C-24.20552536 73.80049591 -24.20552536 73.80049591 -23.84133911 72.70428467 C-15.80758277 48.49830991 -7.91721104 24.24425959 0 0 Z " fill="#020202" transform="translate(621,567)"/>
<path d="M0 0 C1.63048598 2.11610004 3.14076138 4.22273769 4.625 6.4375 C5.25535156 7.35499023 5.25535156 7.35499023 5.8984375 8.29101562 C9 12.8476943 9 12.8476943 9 14 C-0.57 14 -10.14 14 -20 14 C-14.36628512 8.36628512 -14.36628512 8.36628512 -11.73828125 6.54296875 C-10.89620117 5.95805664 -10.89620117 5.95805664 -10.03710938 5.36132812 C-9.46798828 4.97396484 -8.89886719 4.58660156 -8.3125 4.1875 C-7.73177734 3.78080078 -7.15105469 3.37410156 -6.55273438 2.95507812 C-2.25669643 0 -2.25669643 0 0 0 Z " fill="#040404" transform="translate(271,516)"/>
<path d="M0 0 C4.30064055 2.039424 7.93302335 4.74486412 11.75 7.5625 C12.44738281 8.06974609 13.14476562 8.57699219 13.86328125 9.09960938 C15.59573718 10.3726763 17.30057829 11.68315954 19 13 C19 13.33 19 13.66 19 14 C9.43 14 -0.14 14 -10 14 C-3 3 -3 3 0 0 Z " fill="#050505" transform="translate(754,516)"/>
</svg>
